<svg id="visual" viewBox="0 0 900 600" width="900" height="600" xmlns="http://www.w3.org/2000/svg" xmlns:xlink="http://www.w3.org/1999/xlink" version="1.1"><rect x="0" y="0" width="900" height="600" fill="#08032d"></rect><path d="M0 99L7.8 96.3C15.7 93.7 31.3 88.3 47.2 95.5C63 102.7 79 122.3 94.8 121.3C110.7 120.3 126.3 98.7 142 95.8C157.7 93 173.3 109 189.2 103.2C205 97.3 221 69.7 236.8 69.7C252.7 69.7 268.3 97.3 284.2 99.8C300 102.3 316 79.7 331.8 90.2C347.7 100.7 363.3 144.3 379 163.8C394.7 183.3 410.3 178.7 426.2 169.2C442 159.7 458 145.3 473.8 131.8C489.7 118.3 505.3 105.7 521 118.5C536.7 131.3 552.3 169.7 568.2 162.5C584 155.3 600 102.7 615.8 87.2C631.7 71.7 647.3 93.3 663.2 91.7C679 90 695 65 710.8 61.5C726.7 58 742.3 76 758 75.8C773.7 75.7 789.3 57.3 805.2 57.3C821 57.3 837 75.7 852.8 90.3C868.7 105 884.3 116 892.2 121.5L900 127L900 601L892.2 601C884.3 601 868.7 601 852.8 601C837 601 821 601 805.2 601C789.3 601 773.7 601 758 601C742.3 601 726.7 601 710.8 601C695 601 679 601 663.2 601C647.3 601 631.7 601 615.8 601C600 601 584 601 568.2 601C552.3 601 536.7 601 521 601C505.3 601 489.7 601 473.8 601C458 601 442 601 426.2 601C410.3 601 394.7 601 379 601C363.3 601 347.7 601 331.8 601C316 601 300 601 284.2 601C268.3 601 252.7 601 236.8 601C221 601 205 601 189.2 601C173.3 601 157.7 601 142 601C126.3 601 110.7 601 94.8 601C79 601 63 601 47.2 601C31.3 601 15.7 601 7.8 601L0 601Z" fill="#2e0171"></path><path d="M0 230L7.8 219C15.7 208 31.3 186 47.2 171.7C63 157.3 79 150.7 94.8 155C110.7 159.3 126.3 174.7 142 186.5C157.7 198.3 173.3 206.7 189.2 200.8C205 195 221 175 236.8 175.3C252.7 175.7 268.3 196.3 284.2 185.2C300 174 316 131 331.8 125.2C347.7 119.3 363.3 150.7 379 176C394.7 201.3 410.3 220.7 426.2 224.8C442 229 458 218 473.8 193.7C489.7 169.3 505.3 131.7 521 129.3C536.7 127 552.3 160 568.2 181.8C584 203.7 600 214.3 615.8 202.7C631.7 191 647.3 157 663.2 134.5C679 112 695 101 710.8 101.3C726.7 101.7 742.3 113.3 758 131.7C773.7 150 789.3 175 805.2 185C821 195 837 190 852.8 174.7C868.7 159.3 884.3 133.7 892.2 120.8L900 108L900 601L892.2 601C884.3 601 868.7 601 852.8 601C837 601 821 601 805.2 601C789.3 601 773.7 601 758 601C742.3 601 726.7 601 710.8 601C695 601 679 601 663.2 601C647.3 601 631.7 601 615.8 601C600 601 584 601 568.2 601C552.3 601 536.7 601 521 601C505.3 601 489.7 601 473.8 601C458 601 442 601 426.2 601C410.3 601 394.7 601 379 601C363.3 601 347.7 601 331.8 601C316 601 300 601 284.2 601C268.3 601 252.7 601 236.8 601C221 601 205 601 189.2 601C173.3 601 157.7 601 142 601C126.3 601 110.7 601 94.8 601C79 601 63 601 47.2 601C31.3 601 15.7 601 7.8 601L0 601Z" fill="#520073"></path><path d="M0 185L7.8 176.2C15.7 167.3 31.3 149.7 47.2 155.3C63 161 79 190 94.8 208.5C110.7 227 126.3 235 142 245.2C157.7 255.3 173.3 267.7 189.2 258.5C205 249.3 221 218.7 236.8 218.3C252.7 218 268.3 248 284.2 262.2C300 276.3 316 274.7 331.8 266.2C347.7 257.7 363.3 242.3 379 224.8C394.7 207.3 410.3 187.7 426.2 183C442 178.3 458 188.7 473.8 190.2C489.7 191.7 505.3 184.3 521 177.8C536.7 171.3 552.3 165.7 568.2 168.3C584 171 600 182 615.8 192.3C631.7 202.7 647.3 212.3 663.2 220.7C679 229 695 236 710.8 233.7C726.7 231.3 742.3 219.7 758 218.2C773.7 216.7 789.3 225.3 805.2 238C821 250.7 837 267.3 852.8 264.3C868.7 261.3 884.3 238.7 892.2 227.3L900 216L900 601L892.2 601C884.3 601 868.7 601 852.8 601C837 601 821 601 805.2 601C789.3 601 773.7 601 758 601C742.3 601 726.7 601 710.8 601C695 601 679 601 663.2 601C647.3 601 631.7 601 615.8 601C600 601 584 601 568.2 601C552.3 601 536.7 601 521 601C505.3 601 489.7 601 473.8 601C458 601 442 601 426.2 601C410.3 601 394.7 601 379 601C363.3 601 347.7 601 331.8 601C316 601 300 601 284.2 601C268.3 601 252.7 601 236.8 601C221 601 205 601 189.2 601C173.3 601 157.7 601 142 601C126.3 601 110.7 601 94.8 601C79 601 63 601 47.2 601C31.3 601 15.7 601 7.8 601L0 601Z" fill="#6e0073"></path><path d="M0 196L7.8 199.3C15.7 202.7 31.3 209.3 47.2 214.5C63 219.7 79 223.3 94.8 233.8C110.7 244.3 126.3 261.7 142 260.3C157.7 259 173.3 239 189.2 239C205 239 221 259 236.8 274.7C252.7 290.3 268.3 301.7 284.2 302.3C300 303 316 293 331.8 271.5C347.7 250 363.3 217 379 214.2C394.7 211.3 410.3 238.7 426.2 261.5C442 284.3 458 302.7 473.8 291.8C489.7 281 505.3 241 521 233.2C536.7 225.3 552.3 249.7 568.2 265.7C584 281.7 600 289.3 615.8 277.7C631.7 266 647.3 235 663.2 229.7C679 224.3 695 244.7 710.8 247.8C726.7 251 742.3 237 758 227.8C773.7 218.7 789.3 214.3 805.2 219.8C821 225.3 837 240.7 852.8 239C868.7 237.3 884.3 218.7 892.2 209.3L900 200L900 601L892.2 601C884.3 601 868.7 601 852.8 601C837 601 821 601 805.2 601C789.3 601 773.7 601 758 601C742.3 601 726.7 601 710.8 601C695 601 679 601 663.2 601C647.3 601 631.7 601 615.8 601C600 601 584 601 568.2 601C552.3 601 536.7 601 521 601C505.3 601 489.7 601 473.8 601C458 601 442 601 426.2 601C410.3 601 394.7 601 379 601C363.3 601 347.7 601 331.8 601C316 601 300 601 284.2 601C268.3 601 252.7 601 236.8 601C221 601 205 601 189.2 601C173.3 601 157.7 601 142 601C126.3 601 110.7 601 94.8 601C79 601 63 601 47.2 601C31.3 601 15.7 601 7.8 601L0 601Z" fill="#870072"></path><path d="M0 269L7.8 282.3C15.7 295.7 31.3 322.3 47.2 326C63 329.7 79 310.3 94.8 293C110.7 275.7 126.3 260.3 142 262.8C157.7 265.3 173.3 285.7 189.2 292C205 298.3 221 290.7 236.8 299.2C252.7 307.7 268.3 332.3 284.2 333.7C300 335 316 313 331.8 305.3C347.7 297.7 363.3 304.3 379 308.5C394.7 312.7 410.3 314.3 426.2 322.3C442 330.3 458 344.7 473.8 339.5C489.7 334.3 505.3 309.7 521 288.5C536.7 267.3 552.3 249.7 568.2 260.2C584 270.7 600 309.3 615.8 309C631.7 308.7 647.3 269.3 663.2 258.3C679 247.3 695 264.7 710.8 271.2C726.7 277.7 742.3 273.3 758 270.2C773.7 267 789.3 265 805.2 274.5C821 284 837 305 852.8 312C868.7 319 884.3 312 892.2 308.5L900 305L900 601L892.2 601C884.3 601 868.7 601 852.8 601C837 601 821 601 805.2 601C789.3 601 773.7 601 758 601C742.3 601 726.7 601 710.8 601C695 601 679 601 663.2 601C647.3 601 631.7 601 615.8 601C600 601 584 601 568.2 601C552.3 601 536.7 601 521 601C505.3 601 489.7 601 473.8 601C458 601 442 601 426.2 601C410.3 601 394.7 601 379 601C363.3 601 347.7 601 331.8 601C316 601 300 601 284.2 601C268.3 601 252.7 601 236.8 601C221 601 205 601 189.2 601C173.3 601 157.7 601 142 601C126.3 601 110.7 601 94.8 601C79 601 63 601 47.2 601C31.3 601 15.7 601 7.8 601L0 601Z" fill="#9e0070"></path><path d="M0 352L7.8 357.5C15.7 363 31.3 374 47.2 367C63 360 79 335 94.8 324.2C110.7 313.3 126.3 316.7 142 323.2C157.7 329.7 173.3 339.3 189.2 332.7C205 326 221 303 236.8 302.5C252.7 302 268.3 324 284.2 329.3C300 334.7 316 323.3 331.8 328.7C347.7 334 363.3 356 379 354C394.7 352 410.3 326 426.2 318.2C442 310.3 458 320.7 473.8 320.3C489.7 320 505.3 309 521 304C536.7 299 552.3 300 568.2 303.5C584 307 600 313 615.8 321.2C631.7 329.3 647.3 339.7 663.2 346.3C679 353 695 356 710.8 361.5C726.7 367 742.3 375 758 366.2C773.7 357.3 789.3 331.7 805.2 320C821 308.3 837 310.7 852.8 315.5C868.7 320.3 884.3 327.7 892.2 331.3L900 335L900 601L892.2 601C884.3 601 868.7 601 852.8 601C837 601 821 601 805.2 601C789.3 601 773.7 601 758 601C742.3 601 726.7 601 710.8 601C695 601 679 601 663.2 601C647.3 601 631.7 601 615.8 601C600 601 584 601 568.2 601C552.3 601 536.7 601 521 601C505.3 601 489.7 601 473.8 601C458 601 442 601 426.2 601C410.3 601 394.7 601 379 601C363.3 601 347.7 601 331.8 601C316 601 300 601 284.2 601C268.3 601 252.7 601 236.8 601C221 601 205 601 189.2 601C173.3 601 157.7 601 142 601C126.3 601 110.7 601 94.8 601C79 601 63 601 47.2 601C31.3 601 15.7 601 7.8 601L0 601Z" fill="#b3086e"></path><path d="M0 366L7.8 374.3C15.7 382.7 31.3 399.3 47.2 400.8C63 402.3 79 388.7 94.8 373.5C110.7 358.3 126.3 341.7 142 335C157.7 328.3 173.3 331.7 189.2 339.2C205 346.7 221 358.3 236.8 361.3C252.7 364.3 268.3 358.7 284.2 355.2C300 351.7 316 350.3 331.8 361.5C347.7 372.7 363.3 396.3 379 410.3C394.7 424.3 410.3 428.7 426.2 427.2C442 425.7 458 418.3 473.8 412.3C489.7 406.3 505.3 401.7 521 398.7C536.7 395.7 552.3 394.3 568.2 391.7C584 389 600 385 615.8 386.7C631.7 388.3 647.3 395.7 663.2 395.7C679 395.7 695 388.3 710.8 391.5C726.7 394.7 742.3 408.3 758 398.8C773.7 389.3 789.3 356.7 805.2 351.3C821 346 837 368 852.8 380.5C868.7 393 884.3 396 892.2 397.5L900 399L900 601L892.2 601C884.3 601 868.7 601 852.8 601C837 601 821 601 805.2 601C789.3 601 773.7 601 758 601C742.3 601 726.7 601 710.8 601C695 601 679 601 663.2 601C647.3 601 631.7 601 615.8 601C600 601 584 601 568.2 601C552.3 601 536.7 601 521 601C505.3 601 489.7 601 473.8 601C458 601 442 601 426.2 601C410.3 601 394.7 601 379 601C363.3 601 347.7 601 331.8 601C316 601 300 601 284.2 601C268.3 601 252.7 601 236.8 601C221 601 205 601 189.2 601C173.3 601 157.7 601 142 601C126.3 601 110.7 601 94.8 601C79 601 63 601 47.2 601C31.3 601 15.7 601 7.8 601L0 601Z" fill="#c6216b"></path><path d="M0 452L7.8 451.8C15.7 451.7 31.3 451.3 47.2 453C63 454.7 79 458.3 94.8 461.3C110.7 464.3 126.3 466.7 142 454.5C157.7 442.3 173.3 415.7 189.2 400.2C205 384.7 221 380.3 236.8 388.7C252.7 397 268.3 418 284.2 429C300 440 316 441 331.8 432.5C347.7 424 363.3 406 379 396.5C394.7 387 410.3 386 426.2 387C442 388 458 391 473.8 400.2C489.7 409.3 505.3 424.7 521 423.2C536.7 421.7 552.3 403.3 568.2 392.8C584 382.3 600 379.7 615.8 380.8C631.7 382 647.3 387 663.2 389.3C679 391.7 695 391.3 710.8 400.7C726.7 410 742.3 429 758 438C773.7 447 789.3 446 805.2 440.8C821 435.7 837 426.3 852.8 415.7C868.7 405 884.3 393 892.2 387L900 381L900 601L892.2 601C884.3 601 868.7 601 852.8 601C837 601 821 601 805.2 601C789.3 601 773.7 601 758 601C742.3 601 726.7 601 710.8 601C695 601 679 601 663.2 601C647.3 601 631.7 601 615.8 601C600 601 584 601 568.2 601C552.3 601 536.7 601 521 601C505.3 601 489.7 601 473.8 601C458 601 442 601 426.2 601C410.3 601 394.7 601 379 601C363.3 601 347.7 601 331.8 601C316 601 300 601 284.2 601C268.3 601 252.7 601 236.8 601C221 601 205 601 189.2 601C173.3 601 157.7 601 142 601C126.3 601 110.7 601 94.8 601C79 601 63 601 47.2 601C31.3 601 15.7 601 7.8 601L0 601Z" fill="#d73568"></path><path d="M0 421L7.8 433.3C15.7 445.7 31.3 470.3 47.2 473.2C63 476 79 457 94.8 450.5C110.7 444 126.3 450 142 449.2C157.7 448.3 173.3 440.7 189.2 442.2C205 443.7 221 454.3 236.8 459.8C252.7 465.3 268.3 465.7 284.2 459C300 452.3 316 438.7 331.8 439.7C347.7 440.7 363.3 456.3 379 468.8C394.7 481.3 410.3 490.7 426.2 481.8C442 473 458 446 473.8 444.2C489.7 442.3 505.3 465.7 521 465.8C536.7 466 552.3 443 568.2 441.5C584 440 600 460 615.8 472C631.7 484 647.3 488 663.2 484.3C679 480.7 695 469.3 710.8 465C726.7 460.7 742.3 463.3 758 465.2C773.7 467 789.3 468 805.2 462.7C821 457.3 837 445.7 852.8 443.5C868.7 441.3 884.3 448.7 892.2 452.3L900 456L900 601L892.2 601C884.3 601 868.7 601 852.8 601C837 601 821 601 805.2 601C789.3 601 773.7 601 758 601C742.3 601 726.7 601 710.8 601C695 601 679 601 663.2 601C647.3 601 631.7 601 615.8 601C600 601 584 601 568.2 601C552.3 601 536.7 601 521 601C505.3 601 489.7 601 473.8 601C458 601 442 601 426.2 601C410.3 601 394.7 601 379 601C363.3 601 347.7 601 331.8 601C316 601 300 601 284.2 601C268.3 601 252.7 601 236.8 601C221 601 205 601 189.2 601C173.3 601 157.7 601 142 601C126.3 601 110.7 601 94.8 601C79 601 63 601 47.2 601C31.3 601 15.7 601 7.8 601L0 601Z" fill="#e64866"></path><path d="M0 470L7.8 471.2C15.7 472.3 31.3 474.7 47.2 475.5C63 476.3 79 475.7 94.8 476.8C110.7 478 126.3 481 142 489.5C157.7 498 173.3 512 189.2 514C205 516 221 506 236.8 498.5C252.7 491 268.3 486 284.2 482.3C300 478.7 316 476.3 331.8 484.2C347.7 492 363.3 510 379 521.5C394.7 533 410.3 538 426.2 538.5C442 539 458 535 473.8 530.5C489.7 526 505.3 521 521 515.7C536.7 510.3 552.3 504.7 568.2 497.5C584 490.3 600 481.7 615.8 483.2C631.7 484.7 647.3 496.3 663.2 495.3C679 494.3 695 480.7 710.8 477.3C726.7 474 742.3 481 758 493.8C773.7 506.7 789.3 525.3 805.2 528.2C821 531 837 518 852.8 505.5C868.7 493 884.3 481 892.2 475L900 469L900 601L892.2 601C884.3 601 868.7 601 852.8 601C837 601 821 601 805.2 601C789.3 601 773.7 601 758 601C742.3 601 726.7 601 710.8 601C695 601 679 601 663.2 601C647.3 601 631.7 601 615.8 601C600 601 584 601 568.2 601C552.3 601 536.7 601 521 601C505.3 601 489.7 601 473.8 601C458 601 442 601 426.2 601C410.3 601 394.7 601 379 601C363.3 601 347.7 601 331.8 601C316 601 300 601 284.2 601C268.3 601 252.7 601 236.8 601C221 601 205 601 189.2 601C173.3 601 157.7 601 142 601C126.3 601 110.7 601 94.8 601C79 601 63 601 47.2 601C31.3 601 15.7 601 7.8 601L0 601Z" fill="#f45b63"></path><path d="M0 556L7.8 551.3C15.7 546.7 31.3 537.3 47.2 533.3C63 529.3 79 530.7 94.8 528.8C110.7 527 126.3 522 142 522.7C157.7 523.3 173.3 529.7 189.2 534.8C205 540 221 544 236.8 549.3C252.7 554.7 268.3 561.3 284.2 564.2C300 567 316 566 331.8 559C347.7 552 363.3 539 379 537C394.7 535 410.3 544 426.2 545.2C442 546.3 458 539.7 473.8 542C489.7 544.3 505.3 555.7 521 557C536.7 558.3 552.3 549.7 568.2 541.7C584 533.7 600 526.3 615.8 524.3C631.7 522.3 647.3 525.7 663.2 528.5C679 531.3 695 533.7 710.8 536.5C726.7 539.3 742.3 542.7 758 544.8C773.7 547 789.3 548 805.2 549C821 550 837 551 852.8 549.8C868.7 548.7 884.3 545.3 892.2 543.7L900 542L900 601L892.2 601C884.3 601 868.7 601 852.8 601C837 601 821 601 805.2 601C789.3 601 773.7 601 758 601C742.3 601 726.7 601 710.8 601C695 601 679 601 663.2 601C647.3 601 631.7 601 615.8 601C600 601 584 601 568.2 601C552.3 601 536.7 601 521 601C505.3 601 489.7 601 473.8 601C458 601 442 601 426.2 601C410.3 601 394.7 601 379 601C363.3 601 347.7 601 331.8 601C316 601 300 601 284.2 601C268.3 601 252.7 601 236.8 601C221 601 205 601 189.2 601C173.3 601 157.7 601 142 601C126.3 601 110.7 601 94.8 601C79 601 63 601 47.2 601C31.3 601 15.7 601 7.8 601L0 601Z" fill="#ff6f61"></path></svg>