<svg id="visual" viewBox="0 0 900 450" width="900" height="450" xmlns="http://www.w3.org/2000/svg" xmlns:xlink="http://www.w3.org/1999/xlink" version="1.1"><rect x="0" y="0" width="900" height="450" fill="#08032d"></rect><path d="M0 134L7.8 123.3C15.7 112.7 31.3 91.3 47.2 81.7C63 72 79 74 94.8 72.2C110.7 70.3 126.3 64.7 142 74.2C157.7 83.7 173.3 108.3 189.2 110.3C205 112.3 221 91.7 236.8 93.3C252.7 95 268.3 119 284.2 112.8C300 106.7 316 70.3 331.8 63.5C347.7 56.7 363.3 79.3 379 96.3C394.7 113.3 410.3 124.7 426.2 126.7C442 128.7 458 121.3 473.8 116.7C489.7 112 505.3 110 521 96.3C536.7 82.7 552.3 57.3 568.2 65.7C584 74 600 116 615.8 129C631.7 142 647.3 126 663.2 113.5C679 101 695 92 710.8 96.7C726.7 101.3 742.3 119.7 758 110.7C773.7 101.7 789.3 65.3 805.2 55.3C821 45.3 837 61.7 852.8 76.3C868.7 91 884.3 104 892.2 110.5L900 117L900 451L892.2 451C884.3 451 868.7 451 852.8 451C837 451 821 451 805.2 451C789.3 451 773.7 451 758 451C742.3 451 726.7 451 710.8 451C695 451 679 451 663.2 451C647.3 451 631.7 451 615.8 451C600 451 584 451 568.2 451C552.3 451 536.7 451 521 451C505.3 451 489.7 451 473.8 451C458 451 442 451 426.2 451C410.3 451 394.7 451 379 451C363.3 451 347.7 451 331.8 451C316 451 300 451 284.2 451C268.3 451 252.7 451 236.8 451C221 451 205 451 189.2 451C173.3 451 157.7 451 142 451C126.3 451 110.7 451 94.8 451C79 451 63 451 47.2 451C31.3 451 15.7 451 7.8 451L0 451Z" fill="#2e0171"></path><path d="M0 119L7.8 113C15.7 107 31.3 95 47.2 93.3C63 91.7 79 100.3 94.8 109.3C110.7 118.3 126.3 127.7 142 140C157.7 152.3 173.3 167.7 189.2 165.2C205 162.7 221 142.3 236.8 142C252.7 141.7 268.3 161.3 284.2 157.2C300 153 316 125 331.8 117C347.7 109 363.3 121 379 122C394.7 123 410.3 113 426.2 120.2C442 127.3 458 151.7 473.8 164.7C489.7 177.7 505.3 179.3 521 167.3C536.7 155.3 552.3 129.7 568.2 128C584 126.3 600 148.7 615.8 157.7C631.7 166.7 647.3 162.3 663.2 150.3C679 138.3 695 118.7 710.8 111.7C726.7 104.7 742.3 110.3 758 120.3C773.7 130.3 789.3 144.7 805.2 140C821 135.3 837 111.7 852.8 96.8C868.7 82 884.3 76 892.2 73L900 70L900 451L892.2 451C884.3 451 868.7 451 852.8 451C837 451 821 451 805.2 451C789.3 451 773.7 451 758 451C742.3 451 726.7 451 710.8 451C695 451 679 451 663.2 451C647.3 451 631.7 451 615.8 451C600 451 584 451 568.2 451C552.3 451 536.7 451 521 451C505.3 451 489.7 451 473.8 451C458 451 442 451 426.2 451C410.3 451 394.7 451 379 451C363.3 451 347.7 451 331.8 451C316 451 300 451 284.2 451C268.3 451 252.7 451 236.8 451C221 451 205 451 189.2 451C173.3 451 157.7 451 142 451C126.3 451 110.7 451 94.8 451C79 451 63 451 47.2 451C31.3 451 15.7 451 7.8 451L0 451Z" fill="#520073"></path><path d="M0 142L7.8 147.2C15.7 152.3 31.3 162.7 47.2 166.7C63 170.7 79 168.3 94.8 173.2C110.7 178 126.3 190 142 181.8C157.7 173.7 173.3 145.3 189.2 129.3C205 113.3 221 109.7 236.8 116.8C252.7 124 268.3 142 284.2 147.8C300 153.7 316 147.3 331.8 146C347.7 144.7 363.3 148.3 379 158.3C394.7 168.3 410.3 184.7 426.2 188.8C442 193 458 185 473.8 180.5C489.7 176 505.3 175 521 165.2C536.7 155.3 552.3 136.7 568.2 141.2C584 145.7 600 173.3 615.8 176C631.7 178.7 647.3 156.3 663.2 148.8C679 141.3 695 148.7 710.8 156.2C726.7 163.7 742.3 171.3 758 175.3C773.7 179.3 789.3 179.7 805.2 173.5C821 167.3 837 154.7 852.8 155.7C868.7 156.7 884.3 171.3 892.2 178.7L900 186L900 451L892.2 451C884.3 451 868.7 451 852.8 451C837 451 821 451 805.2 451C789.3 451 773.7 451 758 451C742.3 451 726.7 451 710.8 451C695 451 679 451 663.2 451C647.3 451 631.7 451 615.8 451C600 451 584 451 568.2 451C552.3 451 536.7 451 521 451C505.3 451 489.7 451 473.8 451C458 451 442 451 426.2 451C410.3 451 394.7 451 379 451C363.3 451 347.7 451 331.8 451C316 451 300 451 284.2 451C268.3 451 252.7 451 236.8 451C221 451 205 451 189.2 451C173.3 451 157.7 451 142 451C126.3 451 110.7 451 94.8 451C79 451 63 451 47.2 451C31.3 451 15.7 451 7.8 451L0 451Z" fill="#6e0073"></path><path d="M0 230L7.8 219.8C15.7 209.7 31.3 189.3 47.2 185.7C63 182 79 195 94.8 195.2C110.7 195.3 126.3 182.7 142 187.2C157.7 191.7 173.3 213.3 189.2 215.5C205 217.7 221 200.3 236.8 186.2C252.7 172 268.3 161 284.2 170C300 179 316 208 331.8 218.7C347.7 229.3 363.3 221.7 379 210.8C394.7 200 410.3 186 426.2 190.5C442 195 458 218 473.8 212.5C489.7 207 505.3 173 521 165.2C536.7 157.3 552.3 175.7 568.2 188.7C584 201.7 600 209.3 615.8 200.7C631.7 192 647.3 167 663.2 159.8C679 152.7 695 163.3 710.8 168.3C726.7 173.3 742.3 172.7 758 166.2C773.7 159.7 789.3 147.3 805.2 149.8C821 152.3 837 169.7 852.8 176.8C868.7 184 884.3 181 892.2 179.5L900 178L900 451L892.2 451C884.3 451 868.7 451 852.8 451C837 451 821 451 805.2 451C789.3 451 773.7 451 758 451C742.3 451 726.7 451 710.8 451C695 451 679 451 663.2 451C647.3 451 631.7 451 615.8 451C600 451 584 451 568.2 451C552.3 451 536.7 451 521 451C505.3 451 489.7 451 473.8 451C458 451 442 451 426.2 451C410.3 451 394.7 451 379 451C363.3 451 347.7 451 331.8 451C316 451 300 451 284.2 451C268.3 451 252.7 451 236.8 451C221 451 205 451 189.2 451C173.3 451 157.7 451 142 451C126.3 451 110.7 451 94.8 451C79 451 63 451 47.2 451C31.3 451 15.7 451 7.8 451L0 451Z" fill="#870072"></path><path d="M0 237L7.8 233.5C15.7 230 31.3 223 47.2 225.7C63 228.3 79 240.7 94.8 233.7C110.7 226.7 126.3 200.3 142 190.5C157.7 180.7 173.3 187.3 189.2 199C205 210.7 221 227.3 236.8 229.5C252.7 231.7 268.3 219.3 284.2 216.5C300 213.7 316 220.3 331.8 229.2C347.7 238 363.3 249 379 251.8C394.7 254.7 410.3 249.3 426.2 247C442 244.7 458 245.3 473.8 249C489.7 252.7 505.3 259.3 521 258.3C536.7 257.3 552.3 248.7 568.2 236.8C584 225 600 210 615.8 211C631.7 212 647.3 229 663.2 228C679 227 695 208 710.8 200.3C726.7 192.7 742.3 196.3 758 208.2C773.7 220 789.3 240 805.2 251C821 262 837 264 852.8 259.5C868.7 255 884.3 244 892.2 238.5L900 233L900 451L892.2 451C884.3 451 868.7 451 852.8 451C837 451 821 451 805.2 451C789.3 451 773.7 451 758 451C742.3 451 726.7 451 710.8 451C695 451 679 451 663.2 451C647.3 451 631.7 451 615.8 451C600 451 584 451 568.2 451C552.3 451 536.7 451 521 451C505.3 451 489.7 451 473.8 451C458 451 442 451 426.2 451C410.3 451 394.7 451 379 451C363.3 451 347.7 451 331.8 451C316 451 300 451 284.2 451C268.3 451 252.7 451 236.8 451C221 451 205 451 189.2 451C173.3 451 157.7 451 142 451C126.3 451 110.7 451 94.8 451C79 451 63 451 47.2 451C31.3 451 15.7 451 7.8 451L0 451Z" fill="#9e0070"></path><path d="M0 298L7.8 283.3C15.7 268.7 31.3 239.3 47.2 230C63 220.7 79 231.3 94.8 234.7C110.7 238 126.3 234 142 240.3C157.7 246.7 173.3 263.3 189.2 266C205 268.7 221 257.3 236.8 253.3C252.7 249.3 268.3 252.7 284.2 248.5C300 244.3 316 232.7 331.8 236.7C347.7 240.7 363.3 260.3 379 267C394.7 273.7 410.3 267.3 426.2 262.5C442 257.7 458 254.3 473.8 257.2C489.7 260 505.3 269 521 267.8C536.7 266.7 552.3 255.3 568.2 257.5C584 259.7 600 275.3 615.8 281.8C631.7 288.3 647.3 285.7 663.2 282.2C679 278.7 695 274.3 710.8 263.3C726.7 252.3 742.3 234.7 758 224.5C773.7 214.3 789.3 211.7 805.2 225.2C821 238.7 837 268.3 852.8 281.5C868.7 294.7 884.3 291.3 892.2 289.7L900 288L900 451L892.2 451C884.3 451 868.7 451 852.8 451C837 451 821 451 805.2 451C789.3 451 773.7 451 758 451C742.3 451 726.7 451 710.8 451C695 451 679 451 663.2 451C647.3 451 631.7 451 615.8 451C600 451 584 451 568.2 451C552.3 451 536.7 451 521 451C505.3 451 489.7 451 473.8 451C458 451 442 451 426.2 451C410.3 451 394.7 451 379 451C363.3 451 347.7 451 331.8 451C316 451 300 451 284.2 451C268.3 451 252.7 451 236.8 451C221 451 205 451 189.2 451C173.3 451 157.7 451 142 451C126.3 451 110.7 451 94.8 451C79 451 63 451 47.2 451C31.3 451 15.7 451 7.8 451L0 451Z" fill="#b3086e"></path><path d="M0 305L7.8 297.7C15.7 290.3 31.3 275.7 47.2 270.5C63 265.3 79 269.7 94.8 280C110.7 290.3 126.3 306.7 142 315C157.7 323.3 173.3 323.7 189.2 319.8C205 316 221 308 236.8 303.2C252.7 298.3 268.3 296.7 284.2 298.7C300 300.7 316 306.3 331.8 308.2C347.7 310 363.3 308 379 302.7C394.7 297.3 410.3 288.7 426.2 281.8C442 275 458 270 473.8 272.3C489.7 274.7 505.3 284.3 521 286.2C536.7 288 552.3 282 568.2 281.3C584 280.7 600 285.3 615.8 281.3C631.7 277.3 647.3 264.7 663.2 266.7C679 268.7 695 285.3 710.8 290C726.7 294.7 742.3 287.3 758 284.3C773.7 281.3 789.3 282.7 805.2 284C821 285.3 837 286.7 852.8 286C868.7 285.3 884.3 282.7 892.2 281.3L900 280L900 451L892.2 451C884.3 451 868.7 451 852.8 451C837 451 821 451 805.2 451C789.3 451 773.7 451 758 451C742.3 451 726.7 451 710.8 451C695 451 679 451 663.2 451C647.3 451 631.7 451 615.8 451C600 451 584 451 568.2 451C552.3 451 536.7 451 521 451C505.3 451 489.7 451 473.8 451C458 451 442 451 426.2 451C410.3 451 394.7 451 379 451C363.3 451 347.7 451 331.8 451C316 451 300 451 284.2 451C268.3 451 252.7 451 236.8 451C221 451 205 451 189.2 451C173.3 451 157.7 451 142 451C126.3 451 110.7 451 94.8 451C79 451 63 451 47.2 451C31.3 451 15.7 451 7.8 451L0 451Z" fill="#c6216b"></path><path d="M0 313L7.8 307.3C15.7 301.7 31.3 290.3 47.2 293.7C63 297 79 315 94.8 315C110.7 315 126.3 297 142 293.2C157.7 289.3 173.3 299.7 189.2 306.8C205 314 221 318 236.8 317C252.7 316 268.3 310 284.2 304.7C300 299.3 316 294.7 331.8 292.8C347.7 291 363.3 292 379 291.5C394.7 291 410.3 289 426.2 291.7C442 294.3 458 301.7 473.8 308.3C489.7 315 505.3 321 521 322.7C536.7 324.3 552.3 321.7 568.2 321.8C584 322 600 325 615.8 318.7C631.7 312.3 647.3 296.7 663.2 300.8C679 305 695 329 710.8 332.5C726.7 336 742.3 319 758 319.2C773.7 319.3 789.3 336.7 805.2 342.2C821 347.7 837 341.3 852.8 336C868.7 330.7 884.3 326.3 892.2 324.2L900 322L900 451L892.2 451C884.3 451 868.7 451 852.8 451C837 451 821 451 805.2 451C789.3 451 773.7 451 758 451C742.3 451 726.7 451 710.8 451C695 451 679 451 663.2 451C647.3 451 631.7 451 615.8 451C600 451 584 451 568.2 451C552.3 451 536.7 451 521 451C505.3 451 489.7 451 473.8 451C458 451 442 451 426.2 451C410.3 451 394.7 451 379 451C363.3 451 347.7 451 331.8 451C316 451 300 451 284.2 451C268.3 451 252.7 451 236.8 451C221 451 205 451 189.2 451C173.3 451 157.7 451 142 451C126.3 451 110.7 451 94.8 451C79 451 63 451 47.2 451C31.3 451 15.7 451 7.8 451L0 451Z" fill="#d73568"></path><path d="M0 361L7.8 360.5C15.7 360 31.3 359 47.2 356.2C63 353.3 79 348.7 94.8 349.8C110.7 351 126.3 358 142 362.2C157.7 366.3 173.3 367.7 189.2 360.2C205 352.7 221 336.3 236.8 338.5C252.7 340.7 268.3 361.3 284.2 366.8C300 372.3 316 362.7 331.8 359.8C347.7 357 363.3 361 379 360.5C394.7 360 410.3 355 426.2 356.5C442 358 458 366 473.8 361.5C489.7 357 505.3 340 521 331.2C536.7 322.3 552.3 321.7 568.2 326.7C584 331.7 600 342.3 615.8 342.3C631.7 342.3 647.3 331.7 663.2 327.5C679 323.3 695 325.7 710.8 333.8C726.7 342 742.3 356 758 360.5C773.7 365 789.3 360 805.2 357C821 354 837 353 852.8 357.3C868.7 361.7 884.3 371.3 892.2 376.2L900 381L900 451L892.2 451C884.3 451 868.7 451 852.8 451C837 451 821 451 805.2 451C789.3 451 773.7 451 758 451C742.3 451 726.7 451 710.8 451C695 451 679 451 663.2 451C647.3 451 631.7 451 615.8 451C600 451 584 451 568.2 451C552.3 451 536.7 451 521 451C505.3 451 489.7 451 473.8 451C458 451 442 451 426.2 451C410.3 451 394.7 451 379 451C363.3 451 347.7 451 331.8 451C316 451 300 451 284.2 451C268.3 451 252.7 451 236.8 451C221 451 205 451 189.2 451C173.3 451 157.7 451 142 451C126.3 451 110.7 451 94.8 451C79 451 63 451 47.2 451C31.3 451 15.7 451 7.8 451L0 451Z" fill="#e64866"></path><path d="M0 393L7.8 387.3C15.7 381.7 31.3 370.3 47.2 372C63 373.7 79 388.3 94.8 391.8C110.7 395.3 126.3 387.7 142 384.8C157.7 382 173.3 384 189.2 379.2C205 374.3 221 362.7 236.8 361.2C252.7 359.7 268.3 368.3 284.2 376C300 383.7 316 390.3 331.8 393.2C347.7 396 363.3 395 379 396C394.7 397 410.3 400 426.2 401.3C442 402.7 458 402.3 473.8 394.2C489.7 386 505.3 370 521 368.2C536.7 366.3 552.3 378.7 568.2 382.8C584 387 600 383 615.8 379C631.7 375 647.3 371 663.2 375.7C679 380.3 695 393.7 710.8 396C726.7 398.3 742.3 389.7 758 387.2C773.7 384.7 789.3 388.3 805.2 384.8C821 381.3 837 370.7 852.8 370C868.7 369.3 884.3 378.7 892.2 383.3L900 388L900 451L892.2 451C884.3 451 868.7 451 852.8 451C837 451 821 451 805.2 451C789.3 451 773.7 451 758 451C742.3 451 726.7 451 710.8 451C695 451 679 451 663.2 451C647.3 451 631.7 451 615.8 451C600 451 584 451 568.2 451C552.3 451 536.7 451 521 451C505.3 451 489.7 451 473.8 451C458 451 442 451 426.2 451C410.3 451 394.7 451 379 451C363.3 451 347.7 451 331.8 451C316 451 300 451 284.2 451C268.3 451 252.7 451 236.8 451C221 451 205 451 189.2 451C173.3 451 157.7 451 142 451C126.3 451 110.7 451 94.8 451C79 451 63 451 47.2 451C31.3 451 15.7 451 7.8 451L0 451Z" fill="#f45b63"></path><path d="M0 409L7.8 407.8C15.7 406.7 31.3 404.3 47.2 404.2C63 404 79 406 94.8 403.7C110.7 401.3 126.3 394.7 142 394.3C157.7 394 173.3 400 189.2 402.7C205 405.3 221 404.7 236.8 403.5C252.7 402.3 268.3 400.7 284.2 401.2C300 401.7 316 404.3 331.8 408.3C347.7 412.3 363.3 417.7 379 417.7C394.7 417.7 410.3 412.3 426.2 409.7C442 407 458 407 473.8 404C489.7 401 505.3 395 521 398.7C536.7 402.3 552.3 415.7 568.2 416.5C584 417.3 600 405.7 615.8 402.5C631.7 399.3 647.3 404.7 663.2 411C679 417.3 695 424.7 710.8 426.8C726.7 429 742.3 426 758 419.2C773.7 412.3 789.3 401.7 805.2 397.7C821 393.7 837 396.3 852.8 403.3C868.7 410.3 884.3 421.7 892.2 427.3L900 433L900 451L892.2 451C884.3 451 868.7 451 852.8 451C837 451 821 451 805.2 451C789.3 451 773.7 451 758 451C742.3 451 726.7 451 710.8 451C695 451 679 451 663.2 451C647.3 451 631.7 451 615.8 451C600 451 584 451 568.2 451C552.3 451 536.7 451 521 451C505.3 451 489.7 451 473.8 451C458 451 442 451 426.2 451C410.3 451 394.7 451 379 451C363.3 451 347.7 451 331.8 451C316 451 300 451 284.2 451C268.3 451 252.7 451 236.8 451C221 451 205 451 189.2 451C173.3 451 157.7 451 142 451C126.3 451 110.7 451 94.8 451C79 451 63 451 47.2 451C31.3 451 15.7 451 7.8 451L0 451Z" fill="#ff6f61"></path></svg>