<svg id="visual" viewBox="0 0 900 600" width="900" height="600" xmlns="http://www.w3.org/2000/svg" xmlns:xlink="http://www.w3.org/1999/xlink" version="1.1"><rect x="0" y="0" width="900" height="600" fill="#001220"></rect><defs><linearGradient id="grad1_0" x1="33.3%" y1="0%" x2="100%" y2="100%"><stop offset="20%" stop-color="#ff0066" stop-opacity="1"></stop><stop offset="80%" stop-color="#ff0066" stop-opacity="1"></stop></linearGradient></defs><defs><linearGradient id="grad1_1" x1="33.3%" y1="0%" x2="100%" y2="100%"><stop offset="20%" stop-color="#ff0066" stop-opacity="1"></stop><stop offset="80%" stop-color="#d70d79" stop-opacity="1"></stop></linearGradient></defs><defs><linearGradient id="grad1_2" x1="33.3%" y1="0%" x2="100%" y2="100%"><stop offset="20%" stop-color="#aa2481" stop-opacity="1"></stop><stop offset="80%" stop-color="#d70d79" stop-opacity="1"></stop></linearGradient></defs><defs><linearGradient id="grad1_3" x1="33.3%" y1="0%" x2="100%" y2="100%"><stop offset="20%" stop-color="#aa2481" stop-opacity="1"></stop><stop offset="80%" stop-color="#7a2e7e" stop-opacity="1"></stop></linearGradient></defs><defs><linearGradient id="grad1_4" x1="33.3%" y1="0%" x2="100%" y2="100%"><stop offset="20%" stop-color="#4c2f70" stop-opacity="1"></stop><stop offset="80%" stop-color="#7a2e7e" stop-opacity="1"></stop></linearGradient></defs><defs><linearGradient id="grad1_5" x1="33.3%" y1="0%" x2="100%" y2="100%"><stop offset="20%" stop-color="#4c2f70" stop-opacity="1"></stop><stop offset="80%" stop-color="#242a59" stop-opacity="1"></stop></linearGradient></defs><defs><linearGradient id="grad1_6" x1="33.3%" y1="0%" x2="100%" y2="100%"><stop offset="20%" stop-color="#07203d" stop-opacity="1"></stop><stop offset="80%" stop-color="#242a59" stop-opacity="1"></stop></linearGradient></defs><defs><linearGradient id="grad1_7" x1="33.3%" y1="0%" x2="100%" y2="100%"><stop offset="20%" stop-color="#07203d" stop-opacity="1"></stop><stop offset="80%" stop-color="#001220" stop-opacity="1"></stop></linearGradient></defs><defs><linearGradient id="grad2_0" x1="0%" y1="0%" x2="66.7%" y2="100%"><stop offset="20%" stop-color="#ff0066" stop-opacity="1"></stop><stop offset="80%" stop-color="#ff0066" stop-opacity="1"></stop></linearGradient></defs><defs><linearGradient id="grad2_1" x1="0%" y1="0%" x2="66.7%" y2="100%"><stop offset="20%" stop-color="#d70d79" stop-opacity="1"></stop><stop offset="80%" stop-color="#ff0066" stop-opacity="1"></stop></linearGradient></defs><defs><linearGradient id="grad2_2" x1="0%" y1="0%" x2="66.7%" y2="100%"><stop offset="20%" stop-color="#d70d79" stop-opacity="1"></stop><stop offset="80%" stop-color="#aa2481" stop-opacity="1"></stop></linearGradient></defs><defs><linearGradient id="grad2_3" x1="0%" y1="0%" x2="66.7%" y2="100%"><stop offset="20%" stop-color="#7a2e7e" stop-opacity="1"></stop><stop offset="80%" stop-color="#aa2481" stop-opacity="1"></stop></linearGradient></defs><defs><linearGradient id="grad2_4" x1="0%" y1="0%" x2="66.7%" y2="100%"><stop offset="20%" stop-color="#7a2e7e" stop-opacity="1"></stop><stop offset="80%" stop-color="#4c2f70" stop-opacity="1"></stop></linearGradient></defs><defs><linearGradient id="grad2_5" x1="0%" y1="0%" x2="66.7%" y2="100%"><stop offset="20%" stop-color="#242a59" stop-opacity="1"></stop><stop offset="80%" stop-color="#4c2f70" stop-opacity="1"></stop></linearGradient></defs><defs><linearGradient id="grad2_6" x1="0%" y1="0%" x2="66.7%" y2="100%"><stop offset="20%" stop-color="#242a59" stop-opacity="1"></stop><stop offset="80%" stop-color="#07203d" stop-opacity="1"></stop></linearGradient></defs><defs><linearGradient id="grad2_7" x1="0%" y1="0%" x2="66.7%" y2="100%"><stop offset="20%" stop-color="#001220" stop-opacity="1"></stop><stop offset="80%" stop-color="#07203d" stop-opacity="1"></stop></linearGradient></defs><g transform="translate(900, 0)"><path d="M0 486.7C-23.7 487.3 -47.4 487.8 -69.3 481.8C-91.2 475.7 -111.3 463.1 -134.1 456.7C-156.9 450.3 -182.5 450.2 -197.7 433C-213 415.7 -218 381.4 -237.3 369.3C-256.6 357.2 -290.2 367.5 -311.7 359.7C-333.2 352 -342.7 326.3 -348.4 301.9C-354.1 277.5 -356.1 254.3 -370.2 237.9C-384.2 221.5 -410.3 211.9 -430.3 196.5C-450.3 181 -464.2 159.7 -465.4 136.6C-466.5 113.5 -454.9 88.7 -456.3 65.6C-457.7 42.5 -472.2 21.3 -486.7 0L0 0Z" fill="#03192e"></path><path d="M0 425.9C-20.7 426.4 -41.5 426.9 -60.6 421.6C-79.8 416.3 -97.4 405.2 -117.3 399.6C-137.3 394 -159.7 393.9 -173 378.9C-186.4 363.8 -190.8 333.7 -207.7 323.1C-224.6 312.6 -253.9 321.5 -272.7 314.8C-291.6 308 -299.8 285.5 -304.9 264.2C-309.9 242.8 -311.6 222.5 -323.9 208.1C-336.2 193.8 -359 185.4 -376.5 171.9C-394 158.4 -406.2 139.8 -407.2 119.6C-408.2 99.4 -398 77.6 -399.3 57.4C-400.5 37.2 -413.2 18.6 -425.9 0L0 0Z" fill="#14254c"></path><path d="M0 365.1C-17.8 365.5 -35.5 365.9 -52 361.3C-68.4 356.8 -83.5 347.3 -100.6 342.5C-117.7 337.8 -136.8 337.7 -148.3 324.7C-159.8 311.8 -163.5 286 -178 277C-192.5 267.9 -217.7 275.6 -233.8 269.8C-249.9 264 -257 244.7 -261.3 226.4C-265.6 208.1 -267.1 190.7 -277.6 178.4C-288.1 166.1 -307.7 159 -322.7 147.4C-337.7 135.8 -348.2 119.8 -349 102.5C-349.9 85.2 -341.2 66.5 -342.2 49.2C-343.3 31.9 -354.2 16 -365.1 0L0 0Z" fill="#372d66"></path><path d="M0 304.2C-14.8 304.6 -29.6 304.9 -43.3 301.1C-57 297.3 -69.6 289.4 -83.8 285.4C-98.1 281.5 -114 281.4 -123.6 270.6C-133.1 259.8 -136.3 238.4 -148.3 230.8C-160.4 223.3 -181.4 229.7 -194.8 224.8C-208.3 220 -214.2 204 -217.8 188.7C-221.3 173.4 -222.6 158.9 -231.3 148.7C-240.1 138.4 -256.4 132.5 -268.9 122.8C-281.4 113.2 -290.1 99.8 -290.8 85.4C-291.6 71 -284.3 55.4 -285.2 41C-286.1 26.6 -295.2 13.3 -304.2 0L0 0Z" fill="#623078"></path><path d="M0 243.4C-11.8 243.6 -23.7 243.9 -34.6 240.9C-45.6 237.9 -55.6 231.5 -67.1 228.4C-78.5 225.2 -91.2 225.1 -98.9 216.5C-106.5 207.9 -109 190.7 -118.7 184.7C-128.3 178.6 -145.1 183.7 -155.9 179.9C-166.6 176 -171.3 163.2 -174.2 150.9C-177.1 138.7 -178.1 127.1 -185.1 118.9C-192.1 110.8 -205.1 106 -215.1 98.2C-225.1 90.5 -232.1 79.9 -232.7 68.3C-233.3 56.8 -227.4 44.3 -228.2 32.8C-228.9 21.3 -236.1 10.6 -243.4 0L0 0Z" fill="#922a81"></path><path d="M0 182.5C-8.9 182.7 -17.8 182.9 -26 180.7C-34.2 178.4 -41.7 173.7 -50.3 171.3C-58.8 168.9 -68.4 168.8 -74.2 162.4C-79.9 155.9 -81.8 143 -89 138.5C-96.2 134 -108.8 137.8 -116.9 134.9C-125 132 -128.5 122.4 -130.7 113.2C-132.8 104 -133.5 95.3 -138.8 89.2C-144.1 83.1 -153.8 79.5 -161.3 73.7C-168.8 67.9 -174.1 59.9 -174.5 51.2C-174.9 42.6 -170.6 33.3 -171.1 24.6C-171.7 16 -177.1 8 -182.5 0L0 0Z" fill="#c11a7e"></path><path d="M0 121.7C-5.9 121.8 -11.8 122 -17.3 120.4C-22.8 118.9 -27.8 115.8 -33.5 114.2C-39.2 112.6 -45.6 112.6 -49.4 108.2C-53.3 103.9 -54.5 95.3 -59.3 92.3C-64.2 89.3 -72.6 91.9 -77.9 89.9C-83.3 88 -85.7 81.6 -87.1 75.5C-88.5 69.4 -89 63.6 -92.5 59.5C-96 55.4 -102.6 53 -107.6 49.1C-112.6 45.3 -116.1 39.9 -116.3 34.2C-116.6 28.4 -113.7 22.2 -114.1 16.4C-114.4 10.6 -118.1 5.3 -121.7 0L0 0Z" fill="#ec0071"></path><path d="M0 60.8C-3 60.9 -5.9 61 -8.7 60.2C-11.4 59.5 -13.9 57.9 -16.8 57.1C-19.6 56.3 -22.8 56.3 -24.7 54.1C-26.6 52 -27.3 47.7 -29.7 46.2C-32.1 44.7 -36.3 45.9 -39 45C-41.7 44 -42.8 40.8 -43.6 37.7C-44.3 34.7 -44.5 31.8 -46.3 29.7C-48 27.7 -51.3 26.5 -53.8 24.6C-56.3 22.6 -58 20 -58.2 17.1C-58.3 14.2 -56.9 11.1 -57 8.2C-57.2 5.3 -59 2.7 -60.8 0L0 0Z" fill="#ff0066"></path></g><g transform="translate(0, 600)"><path d="M0 -486.7C22.6 -484.7 45.3 -482.7 69.3 -481.8C93.2 -480.9 118.6 -481.1 136.4 -464.4C154.2 -447.7 164.4 -414.2 182.8 -400.2C201.1 -386.2 227.5 -391.8 247.1 -384.5C266.6 -377.1 279.4 -357 296.7 -342.4C313.9 -327.7 335.6 -318.6 347.6 -301.2C359.7 -283.9 361.9 -258.4 371.8 -239C381.7 -219.6 399.3 -206.3 415.7 -189.8C432.1 -173.3 447.5 -153.6 448.1 -131.6C448.7 -109.6 434.5 -85.3 438.5 -63C442.5 -40.7 464.6 -20.4 486.7 0L0 0Z" fill="#03192e"></path><path d="M0 -425.9C19.8 -424.1 39.6 -422.4 60.6 -421.6C81.6 -420.8 103.7 -420.9 119.3 -406.3C134.9 -391.8 143.9 -362.5 159.9 -350.2C176 -338 199.1 -342.8 216.2 -336.4C233.3 -330 244.5 -312.4 259.6 -299.6C274.7 -286.7 293.7 -278.8 304.2 -263.6C314.7 -248.4 316.7 -226.1 325.4 -209.1C334 -192.1 349.4 -180.6 363.7 -166.1C378.1 -151.7 391.6 -134.4 392.1 -115.1C392.6 -95.9 380.2 -74.7 383.7 -55.2C387.2 -35.7 406.5 -17.8 425.9 0L0 0Z" fill="#14254c"></path><path d="M0 -365.1C17 -363.5 34 -362 52 -361.3C69.9 -360.7 88.9 -360.8 102.3 -348.3C115.6 -335.8 123.3 -310.7 137.1 -300.2C150.8 -289.7 170.6 -293.8 185.3 -288.3C200 -282.9 209.6 -267.7 222.5 -256.8C235.4 -245.8 251.7 -238.9 260.7 -225.9C269.7 -212.9 271.4 -193.8 278.9 -179.2C286.3 -164.7 299.4 -154.8 311.8 -142.4C324.1 -130 335.6 -115.2 336.1 -98.7C336.5 -82.2 325.9 -64 328.9 -47.3C331.9 -30.6 348.5 -15.3 365.1 0L0 0Z" fill="#372d66"></path><path d="M0 -304.2C14.2 -303 28.3 -301.7 43.3 -301.1C58.3 -300.5 74.1 -300.7 85.2 -290.2C96.3 -279.8 102.8 -258.9 114.2 -250.1C125.7 -241.4 142.2 -244.9 154.4 -240.3C166.7 -235.7 174.6 -223.1 185.4 -214C196.2 -204.8 209.8 -199.1 217.3 -188.3C224.8 -177.4 226.2 -161.5 232.4 -149.4C238.6 -137.2 249.5 -129 259.8 -118.7C270.1 -108.3 279.7 -96 280.1 -82.2C280.4 -68.5 271.6 -53.3 274.1 -39.4C276.5 -25.5 290.4 -12.7 304.2 0L0 0Z" fill="#623078"></path><path d="M0 -243.4C11.3 -242.4 22.6 -241.4 34.6 -240.9C46.6 -240.4 59.3 -240.5 68.2 -232.2C77.1 -223.9 82.2 -207.1 91.4 -200.1C100.6 -193.1 113.8 -195.9 123.5 -192.2C133.3 -188.6 139.7 -178.5 148.3 -171.2C157 -163.9 167.8 -159.3 173.8 -150.6C179.8 -141.9 181 -129.2 185.9 -119.5C190.9 -109.8 199.6 -103.2 207.9 -94.9C216.1 -86.7 223.7 -76.8 224 -65.8C224.3 -54.8 217.3 -42.7 219.2 -31.5C221.2 -20.4 232.3 -10.2 243.4 0L0 0Z" fill="#922a81"></path><path d="M0 -182.5C8.5 -181.8 17 -181 26 -180.7C35 -180.3 44.5 -180.4 51.1 -174.1C57.8 -167.9 61.7 -155.3 68.5 -150.1C75.4 -144.8 85.3 -146.9 92.7 -144.2C100 -141.4 104.8 -133.9 111.2 -128.4C117.7 -122.9 125.9 -119.5 130.4 -113C134.9 -106.5 135.7 -96.9 139.4 -89.6C143.2 -82.3 149.7 -77.4 155.9 -71.2C162.1 -65 167.8 -57.6 168 -49.3C168.3 -41.1 162.9 -32 164.4 -23.6C165.9 -15.3 174.2 -7.6 182.5 0L0 0Z" fill="#c11a7e"></path><path d="M0 -121.7C5.7 -121.2 11.3 -120.7 17.3 -120.4C23.3 -120.2 29.6 -120.3 34.1 -116.1C38.5 -111.9 41.1 -103.6 45.7 -100.1C50.3 -96.6 56.9 -97.9 61.8 -96.1C66.7 -94.3 69.9 -89.2 74.2 -85.6C78.5 -81.9 83.9 -79.6 86.9 -75.3C89.9 -71 90.5 -64.6 93 -59.7C95.4 -54.9 99.8 -51.6 103.9 -47.5C108 -43.3 111.9 -38.4 112 -32.9C112.2 -27.4 108.6 -21.3 109.6 -15.8C110.6 -10.2 116.2 -5.1 121.7 0L0 0Z" fill="#ec0071"></path><path d="M0 -60.8C2.8 -60.6 5.7 -60.3 8.7 -60.2C11.7 -60.1 14.8 -60.1 17 -58C19.3 -56 20.6 -51.8 22.8 -50C25.1 -48.3 28.4 -49 30.9 -48.1C33.3 -47.1 34.9 -44.6 37.1 -42.8C39.2 -41 42 -39.8 43.5 -37.7C45 -35.5 45.2 -32.3 46.5 -29.9C47.7 -27.4 49.9 -25.8 52 -23.7C54 -21.7 55.9 -19.2 56 -16.4C56.1 -13.7 54.3 -10.7 54.8 -7.9C55.3 -5.1 58.1 -2.5 60.8 0L0 0Z" fill="#ff0066"></path></g></svg>