<svg id="visual" viewBox="0 0 900 600" width="900" height="600" xmlns="http://www.w3.org/2000/svg" xmlns:xlink="http://www.w3.org/1999/xlink" version="1.1"><rect x="0" y="0" width="900" height="600" fill="#001220"></rect><defs><linearGradient id="grad1_0" x1="33.3%" y1="0%" x2="100%" y2="100%"><stop offset="20%" stop-color="#ff0066" stop-opacity="1"></stop><stop offset="80%" stop-color="#ff0066" stop-opacity="1"></stop></linearGradient></defs><defs><linearGradient id="grad1_1" x1="33.3%" y1="0%" x2="100%" y2="100%"><stop offset="20%" stop-color="#ff0066" stop-opacity="1"></stop><stop offset="80%" stop-color="#d70d79" stop-opacity="1"></stop></linearGradient></defs><defs><linearGradient id="grad1_2" x1="33.3%" y1="0%" x2="100%" y2="100%"><stop offset="20%" stop-color="#aa2481" stop-opacity="1"></stop><stop offset="80%" stop-color="#d70d79" stop-opacity="1"></stop></linearGradient></defs><defs><linearGradient id="grad1_3" x1="33.3%" y1="0%" x2="100%" y2="100%"><stop offset="20%" stop-color="#aa2481" stop-opacity="1"></stop><stop offset="80%" stop-color="#7a2e7e" stop-opacity="1"></stop></linearGradient></defs><defs><linearGradient id="grad1_4" x1="33.3%" y1="0%" x2="100%" y2="100%"><stop offset="20%" stop-color="#4c2f70" stop-opacity="1"></stop><stop offset="80%" stop-color="#7a2e7e" stop-opacity="1"></stop></linearGradient></defs><defs><linearGradient id="grad1_5" x1="33.3%" y1="0%" x2="100%" y2="100%"><stop offset="20%" stop-color="#4c2f70" stop-opacity="1"></stop><stop offset="80%" stop-color="#242a59" stop-opacity="1"></stop></linearGradient></defs><defs><linearGradient id="grad1_6" x1="33.3%" y1="0%" x2="100%" y2="100%"><stop offset="20%" stop-color="#07203d" stop-opacity="1"></stop><stop offset="80%" stop-color="#242a59" stop-opacity="1"></stop></linearGradient></defs><defs><linearGradient id="grad1_7" x1="33.3%" y1="0%" x2="100%" y2="100%"><stop offset="20%" stop-color="#07203d" stop-opacity="1"></stop><stop offset="80%" stop-color="#001220" stop-opacity="1"></stop></linearGradient></defs><defs><linearGradient id="grad2_0" x1="0%" y1="0%" x2="66.7%" y2="100%"><stop offset="20%" stop-color="#ff0066" stop-opacity="1"></stop><stop offset="80%" stop-color="#ff0066" stop-opacity="1"></stop></linearGradient></defs><defs><linearGradient id="grad2_1" x1="0%" y1="0%" x2="66.7%" y2="100%"><stop offset="20%" stop-color="#d70d79" stop-opacity="1"></stop><stop offset="80%" stop-color="#ff0066" stop-opacity="1"></stop></linearGradient></defs><defs><linearGradient id="grad2_2" x1="0%" y1="0%" x2="66.7%" y2="100%"><stop offset="20%" stop-color="#d70d79" stop-opacity="1"></stop><stop offset="80%" stop-color="#aa2481" stop-opacity="1"></stop></linearGradient></defs><defs><linearGradient id="grad2_3" x1="0%" y1="0%" x2="66.7%" y2="100%"><stop offset="20%" stop-color="#7a2e7e" stop-opacity="1"></stop><stop offset="80%" stop-color="#aa2481" stop-opacity="1"></stop></linearGradient></defs><defs><linearGradient id="grad2_4" x1="0%" y1="0%" x2="66.7%" y2="100%"><stop offset="20%" stop-color="#7a2e7e" stop-opacity="1"></stop><stop offset="80%" stop-color="#4c2f70" stop-opacity="1"></stop></linearGradient></defs><defs><linearGradient id="grad2_5" x1="0%" y1="0%" x2="66.7%" y2="100%"><stop offset="20%" stop-color="#242a59" stop-opacity="1"></stop><stop offset="80%" stop-color="#4c2f70" stop-opacity="1"></stop></linearGradient></defs><defs><linearGradient id="grad2_6" x1="0%" y1="0%" x2="66.7%" y2="100%"><stop offset="20%" stop-color="#242a59" stop-opacity="1"></stop><stop offset="80%" stop-color="#07203d" stop-opacity="1"></stop></linearGradient></defs><defs><linearGradient id="grad2_7" x1="0%" y1="0%" x2="66.7%" y2="100%"><stop offset="20%" stop-color="#001220" stop-opacity="1"></stop><stop offset="80%" stop-color="#07203d" stop-opacity="1"></stop></linearGradient></defs><g transform="translate(900, 0)"><path d="M0 486.7C-57.3 460.9 -114.6 435 -170.3 411.1C-225.9 387.3 -279.9 365.4 -329.5 329.5C-379.1 293.6 -424.2 243.5 -449.7 186.3C-475.2 129 -481 64.5 -486.7 0L0 0Z" fill="#03192e"></path><path d="M0 425.9C-50.2 403.3 -100.3 380.6 -149 359.7C-197.7 338.9 -244.9 319.8 -288.3 288.3C-331.7 256.9 -371.2 213.1 -393.5 163C-415.8 112.9 -420.8 56.4 -425.9 0L0 0Z" fill="#14254c"></path><path d="M0 365.1C-43 345.6 -86 326.2 -127.7 308.3C-169.5 290.5 -210 274.1 -247.1 247.1C-284.3 220.2 -318.2 182.7 -337.3 139.7C-356.4 96.8 -360.7 48.4 -365.1 0L0 0Z" fill="#372d66"></path><path d="M0 304.2C-35.8 288 -71.6 271.9 -106.4 257C-141.2 242 -175 228.4 -205.9 205.9C-236.9 183.5 -265.1 152.2 -281.1 116.4C-297 80.6 -300.6 40.3 -304.2 0L0 0Z" fill="#623078"></path><path d="M0 243.4C-28.7 230.4 -57.3 217.5 -85.1 205.6C-113 193.6 -140 182.7 -164.8 164.8C-189.5 146.8 -212.1 121.8 -224.8 93.1C-237.6 64.5 -240.5 32.3 -243.4 0L0 0Z" fill="#922a81"></path><path d="M0 182.5C-21.5 172.8 -43 163.1 -63.9 154.2C-84.7 145.2 -105 137 -123.6 123.6C-142.2 110.1 -159.1 91.3 -168.6 69.9C-178.2 48.4 -180.4 24.2 -182.5 0L0 0Z" fill="#c11a7e"></path><path d="M0 121.7C-14.3 115.2 -28.7 108.7 -42.6 102.8C-56.5 96.8 -70 91.4 -82.4 82.4C-94.8 73.4 -106.1 60.9 -112.4 46.6C-118.8 32.3 -120.2 16.1 -121.7 0L0 0Z" fill="#ec0071"></path><path d="M0 60.8C-7.2 57.6 -14.3 54.4 -21.3 51.4C-28.2 48.4 -35 45.7 -41.2 41.2C-47.4 36.7 -53 30.4 -56.2 23.3C-59.4 16.1 -60.1 8.1 -60.8 0L0 0Z" fill="#ff0066"></path></g><g transform="translate(0, 600)"><path d="M0 -486.7C42.5 -430.5 84.9 -374.3 148.9 -359.4C212.8 -344.5 298.2 -370.9 344.2 -344.2C390.2 -317.5 396.7 -237.7 413.9 -171.4C431.1 -105.2 458.9 -52.6 486.7 0L0 0Z" fill="#03192e"></path><path d="M0 -425.9C37.2 -376.7 74.3 -327.5 130.3 -314.5C186.2 -301.4 260.9 -324.5 301.2 -301.2C341.4 -277.8 347.1 -208 362.2 -150C377.2 -92.1 401.6 -46 425.9 0L0 0Z" fill="#14254c"></path><path d="M0 -365.1C31.8 -322.9 63.7 -280.7 111.6 -269.5C159.6 -258.4 223.7 -278.2 258.1 -258.1C292.6 -238.1 297.5 -178.2 310.4 -128.6C323.3 -78.9 344.2 -39.5 365.1 0L0 0Z" fill="#372d66"></path><path d="M0 -304.2C26.5 -269.1 53.1 -233.9 93 -224.6C133 -215.3 186.4 -231.8 215.1 -215.1C243.9 -198.4 247.9 -148.5 258.7 -107.2C269.4 -65.8 286.8 -32.9 304.2 0L0 0Z" fill="#623078"></path><path d="M0 -243.4C21.2 -215.3 42.5 -187.1 74.4 -179.7C106.4 -172.2 149.1 -185.4 172.1 -172.1C195.1 -158.7 198.4 -118.8 206.9 -85.7C215.5 -52.6 229.5 -26.3 243.4 0L0 0Z" fill="#922a81"></path><path d="M0 -182.5C15.9 -161.4 31.8 -140.4 55.8 -134.8C79.8 -129.2 111.8 -139.1 129.1 -129.1C146.3 -119.1 148.8 -89.1 155.2 -64.3C161.7 -39.5 172.1 -19.7 182.5 0L0 0Z" fill="#c11a7e"></path><path d="M0 -121.7C10.6 -107.6 21.2 -93.6 37.2 -89.8C53.2 -86.1 74.6 -92.7 86 -86C97.5 -79.4 99.2 -59.4 103.5 -42.9C107.8 -26.3 114.7 -13.2 121.7 0L0 0Z" fill="#ec0071"></path><path d="M0 -60.8C5.3 -53.8 10.6 -46.8 18.6 -44.9C26.6 -43.1 37.3 -46.4 43 -43C48.8 -39.7 49.6 -29.7 51.7 -21.4C53.9 -13.2 57.4 -6.6 60.8 0L0 0Z" fill="#ff0066"></path></g></svg>